<?xml version="1.0" encoding="utf-8"?>
<!-- Svg Vector Icons : http://www.onlinewebfonts.com/icon -->
<!DOCTYPE svg PUBLIC "-//W3C//DTD SVG 1.1//EN" "http://www.w3.org/Graphics/SVG/1.1/DTD/svg11.dtd">
<svg version="1.1" xmlns="http://www.w3.org/2000/svg" xmlns:xlink="http://www.w3.org/1999/xlink" x="0px" y="0px" viewBox="0 0 1000 1000" enable-background="new 0 0 1000 1000" xml:space="preserve">
<metadata> Svg Vector Icons : http://www.onlinewebfonts.com/icon </metadata>
<g><path d="M861.5,169.2C771.9,71.3,643.1,10,500,10C229.4,10,10,229.4,10,500h91.9c0-219.9,178.2-398.1,398.1-398.1c117.7,0,223.5,51.1,296.4,132.4L653.1,377.5H990V40.6L861.5,169.2z"/><path d="M898.1,500c0,219.9-178.2,398.1-398.1,398.1c-117.7,0-223.5-51.1-296.4-132.4l143.3-143.3H10v336.9l128.5-128.5C228.1,928.7,356.9,990,500,990c270.6,0,490-219.4,490-490H898.1z"/></g>
</svg>